<?xml version="1.0" encoding="utf-8"?>
<!-- Generator: Adobe Illustrator 19.1.0, SVG Export Plug-In . SVG Version: 6.00 Build 0)  -->
<svg version="1.1" xmlns="http://www.w3.org/2000/svg" xmlns:xlink="http://www.w3.org/1999/xlink" x="0px" y="0px"
	 viewBox="0 0 15 15" enable-background="new 0 0 15 15" xml:space="preserve">
<g id="Expanded">
	<g>
		<g>
			<path fill="#000000" d="M7.5,13.5c-3.3,0-6-2.7-6-6s2.7-6,6-6s6,2.7,6,6c0,1.6-0.6,3-1.7,4.2C10.7,12.8,9.1,13.5,7.5,13.5z M7.5,2.1
				c-3,0-5.4,2.4-5.4,5.4s2.4,5.4,5.4,5.4c1.5,0,2.9-0.6,3.9-1.7c1-1,1.5-2.3,1.5-3.7C12.9,4.5,10.5,2.1,7.5,2.1z"/>
		</g>
		<g>
			<path fill="#000000" d="M7.2,3.4c0.5,0,0.9,0.2,1,0.5C9.2,3.9,9.3,4.5,9.3,5c0,0.5-0.1,0.9-0.2,1.4l0.1,0c0.3,0,0.3,1.2-0.3,1.2
				c0,0.3-0.5,1.1-0.5,1.1s0,0.4,0,1c0.2,0.1,0.8,0.7,1.6,0.8c0.2,0,0.4,0.1,0.5,0.2c0.8,0.1,1.2,0.3,0.9,0.5
				c-1,1.1-2.5,1.8-4.1,1.8c-1.5,0-2.8-0.7-3.8-1.7C3.4,11,3.5,11,4,10.8c0.2-0.2,0.5-0.3,0.8-0.4c0.8-0.1,1.4-0.7,1.6-0.8
				c0-0.5,0-1,0-1S5.9,8,5.9,7.6c-0.6,0-0.6-1.1-0.3-1.1C5.5,6,5.3,4.7,5.8,4C6.2,3.6,6.8,3.4,7.2,3.4 M7.2,2.8
				C7.2,2.8,7.2,2.8,7.2,2.8c-0.8,0-1.5,0.3-1.9,0.8C4.9,4.2,4.8,5.1,5,6.3C4.9,6.4,4.8,6.7,4.8,7c0,0.3,0.1,0.6,0.2,0.8
				C5.1,7.9,5.2,8,5.4,8.1c0.1,0.3,0.3,0.6,0.4,0.8v0.5C5.5,9.6,5.1,9.8,4.7,9.9c-0.3,0-0.6,0.2-1,0.4c-0.4,0.1-0.7,0.2-0.8,0.6
				c0,0.2,0,0.5,0.3,0.8c1.3,1.2,2.7,1.8,4.2,1.8c1.7,0,3.3-0.7,4.5-2c0.3-0.3,0.2-0.7,0.2-0.8c-0.2-0.4-0.6-0.6-1.4-0.7
				c-0.2-0.1-0.4-0.2-0.6-0.2C9.7,9.8,9.3,9.5,9.1,9.3V8.8c0.1-0.2,0.3-0.5,0.4-0.8C9.6,8,9.7,7.8,9.8,7.7C10,7.5,10,7.2,10,6.9
				c0-0.3-0.1-0.6-0.2-0.8C9.9,5.8,9.9,5.4,9.9,5C10,4.1,9.5,3.5,8.6,3.3C8.3,3,7.8,2.8,7.2,2.8L7.2,2.8z"/>
		</g>
	</g>
</g>
</svg>
